<svg width="35" height="53" viewBox="0 0 35 53" fill="none" xmlns="http://www.w3.org/2000/svg">
<path d="M34.2667 0H0.666667C0.266667 0 0 0.267339 0 0.668348V43.9105C0 44.3115 0.266667 44.5788 0.666667 44.5788H12V52.3317C12 52.599 12.1333 52.7995 12.4 52.9332C12.6 53.0668 12.9333 53 13.1333 52.8663L17.5333 49.3241L21.9333 52.8663C22.0667 52.9332 22.2 53 22.3333 53C22.4 53 22.5333 53 22.6 52.9332C22.8 52.7995 23 52.599 23 52.3317V44.5788H34.3333C34.7333 44.5788 35 44.3115 35 43.9105V0.668348C34.9333 0.334174 34.6667 0 34.2667 0ZM10.8667 36.2245C10.7333 36.1576 10.7333 36.0908 10.7333 36.0908C10.7333 36.024 10.6667 35.9571 10.7333 35.8903C11.1333 35.2219 11 34.3531 10.4 33.8184C10.3333 33.7516 10.3333 33.6847 10.3333 33.6179C10.3333 33.5511 10.3333 33.4842 10.4 33.4174C11 32.9496 11.2 32.0139 10.7333 31.3455C10.6667 31.2787 10.6667 31.145 10.7333 31.145C10.7333 31.0782 10.8 31.0113 10.8667 31.0113C11.6 30.744 12.0667 29.942 11.9333 29.2068C11.9333 29.0731 11.9333 29.0063 12 29.0063C12 28.9395 12.0667 28.9395 12.2 28.9395C12.9333 28.9395 13.6667 28.4048 13.8 27.6028C13.8 27.4691 13.8667 27.4691 13.9333 27.4023C14 27.4023 14.0667 27.3354 14.1333 27.4023C14.8667 27.6696 15.7333 27.4023 16.0667 26.6671C16.1333 26.6003 16.2 26.5334 16.2667 26.5334C16.3333 26.5334 16.4 26.5334 16.4667 26.6003C17.0667 27.1349 17.9333 27.1349 18.5333 26.6003C18.6 26.5334 18.7333 26.5334 18.7333 26.5334C18.8 26.5334 18.8667 26.6003 18.9333 26.6671C19.3333 27.3354 20.1333 27.6696 20.8667 27.4023C20.9333 27.3354 21.0667 27.4023 21.0667 27.4023C21.1333 27.4023 21.2 27.4691 21.2 27.6028C21.3333 28.4048 22 28.9395 22.8 28.9395C22.8667 28.9395 23 29.0063 23 29.0063C23 29.0731 23.0667 29.14 23.0667 29.2068C22.9333 30.0088 23.3333 30.744 24.1333 31.0113C24.2667 31.0782 24.2667 31.145 24.2667 31.145C24.2667 31.2119 24.3333 31.2787 24.2667 31.3455C23.8667 32.0139 24 32.8827 24.6 33.4174C24.6667 33.4842 24.6667 33.5511 24.6667 33.6179C24.6667 33.6847 24.6667 33.7516 24.6 33.8184C24 34.2863 23.8 35.2219 24.2667 35.8903C24.3333 35.9571 24.3333 36.0908 24.2667 36.0908C24.2667 36.1576 24.2 36.2245 24.1333 36.2245C23.4 36.4918 22.9333 37.227 23.0667 38.029C23.0667 38.1627 23.0667 38.2295 23 38.2295C23 38.2963 22.9333 38.2963 22.8 38.2963C22 38.2295 21.3333 38.831 21.2 39.633C21.2 39.7667 21.1333 39.7667 21.0667 39.8335C21 39.8335 20.9333 39.9004 20.8667 39.8335C20.1333 39.5662 19.2667 39.8335 18.9333 40.5687C18.8667 40.6356 18.8 40.7024 18.7333 40.7024C18.6667 40.7024 18.6 40.7024 18.5333 40.6356C18.2667 40.3682 17.8667 40.2346 17.4667 40.2346C17.0667 40.2346 16.7333 40.3682 16.4 40.6356C16.3333 40.7024 16.2 40.7024 16.2 40.7024C16.1333 40.7024 16.0667 40.6356 16 40.5687C15.6 39.9004 14.8 39.5662 14.0667 39.8335C14 39.9004 13.8667 39.8335 13.8667 39.8335C13.8 39.8335 13.7333 39.7667 13.7333 39.633C13.6 38.831 12.9333 38.2963 12.1333 38.2963C12 38.2963 11.9333 38.2295 11.9333 38.2295C11.9333 38.1627 11.8667 38.0958 11.8667 38.029C12 37.227 11.6 36.4918 10.8667 36.2245ZM13.3333 41.0366C13.7333 41.2371 14.2 41.2371 14.6 41.1034C14.7333 41.0366 14.8667 41.1034 14.9333 41.2371C15.1333 41.6381 15.6 41.9723 16.0667 42.0391C16.3333 42.1059 16.6 42.0391 16.8667 41.9723V48.1879L13.3333 50.995V41.0366ZM18.1333 48.1211V41.9723C18.3333 42.0391 18.4667 42.0391 18.6667 42.0391C18.7333 42.0391 18.8667 42.0391 18.9333 42.0391C19.4 41.9723 19.8 41.6381 20.0667 41.2371C20.1333 41.1034 20.2667 41.1034 20.4 41.1034C20.8 41.2371 21.2667 41.2371 21.6667 41.0366V50.9281L18.1333 48.1211ZM33.6 43.2421H23V39.633C23.4 39.5662 23.8 39.4325 24.0667 39.0984C24.4 38.6974 24.5333 38.2295 24.4 37.7617C24.4 37.628 24.4667 37.4943 24.6 37.4943C25.0667 37.3607 25.4 36.9596 25.6 36.5586C25.8 36.1576 25.7333 35.6229 25.4667 35.2219C25.4 35.0883 25.4 34.9546 25.5333 34.8878C25.9333 34.5536 26.1333 34.1526 26.1333 33.6179C26.1333 33.1501 25.9333 32.6822 25.5333 32.348C25.4667 32.2812 25.4 32.1475 25.4667 32.0139C25.7333 31.6129 25.7333 31.0782 25.6 30.6772C25.4667 30.2093 25.0667 29.8752 24.6 29.7415C24.4667 29.6747 24.4 29.6078 24.4 29.4741C24.4667 29.0063 24.4 28.5385 24.0667 28.1375C23.7333 27.7364 23.3333 27.5359 22.8 27.5359C22.6667 27.5359 22.5333 27.4691 22.5333 27.3354C22.4667 26.8676 22.2 26.4666 21.7333 26.1992C21.3333 25.9319 20.8 25.9319 20.4 26.0656C20.2667 26.1324 20.1333 26.0656 20.0667 25.9319C19.8667 25.5309 19.4 25.1967 18.9333 25.1299C18.4667 25.063 18 25.1967 17.6 25.5309C17.5333 25.5977 17.3333 25.5977 17.2667 25.5309C16.9333 25.1967 16.4 25.063 15.9333 25.1299C15.4667 25.1967 15.0667 25.5309 14.8 25.9319C14.7333 26.0656 14.6 26.0656 14.4667 26.0656C14 25.8651 13.5333 25.9319 13.1333 26.1992C12.7333 26.4666 12.4 26.8676 12.3333 27.3354C12.3333 27.4691 12.2 27.5359 12.0667 27.5359C11.5333 27.5359 11.1333 27.7364 10.8 28.1375C10.4667 28.5385 10.3333 29.0063 10.4667 29.4741C10.4667 29.6078 10.4 29.7415 10.2667 29.7415C9.8 29.8752 9.46667 30.2762 9.26667 30.6772C9.13333 31.145 9.13333 31.6129 9.4 32.0139C9.46667 32.1475 9.46667 32.2812 9.33333 32.348C8.93333 32.6822 8.73333 33.0832 8.73333 33.6179C8.73333 34.0857 8.93333 34.5536 9.33333 34.8878C9.4 34.9546 9.46667 35.0883 9.4 35.2219C9.13333 35.6229 9.13333 36.1576 9.26667 36.5586C9.4 36.9596 9.8 37.3607 10.2667 37.4943C10.4 37.5612 10.4667 37.628 10.4667 37.7617C10.4 38.2295 10.4667 38.6974 10.8 39.0984C11.0667 39.4325 11.4667 39.633 11.8667 39.633V43.2421H1.2V1.3367H33.4667V43.2421H33.6Z" fill="white"/>
</svg>
